<?xml version="1.0" standalone="no"?>
<!DOCTYPE svg PUBLIC "-//W3C//DTD SVG 1.1//EN" "http://www.w3.org/Graphics/SVG/1.1/DTD/svg11.dtd">
<svg version="1.1" xmlns="http://www.w3.org/2000/svg" viewBox="0 0 883.5624043772686 355.82216164412154" width="1767.1248087545373" height="711.6443232882431"><!-- svg-source:excalidraw --><metadata></metadata><defs><style class="style-fonts">
      </style></defs><g stroke-linecap="round" transform="translate(403.3196479202875 10) rotate(0.7083868083482888 38.461554367670715 38.46155436767062)"><path d="M76.92 38.46 C76.92 40.47, 76.76 42.5, 76.45 44.48 C76.14 46.46, 75.66 48.44, 75.04 50.35 C74.42 52.25, 73.64 54.14, 72.73 55.92 C71.82 57.71, 70.76 59.45, 69.58 61.07 C68.4 62.69, 67.08 64.24, 65.66 65.66 C64.24 67.08, 62.69 68.4, 61.07 69.58 C59.45 70.76, 57.71 71.82, 55.92 72.73 C54.14 73.64, 52.25 74.42, 50.35 75.04 C48.44 75.66, 46.46 76.14, 44.48 76.45 C42.5 76.76, 40.47 76.92, 38.46 76.92 C36.46 76.92, 34.43 76.76, 32.44 76.45 C30.46 76.14, 28.48 75.66, 26.58 75.04 C24.67 74.42, 22.79 73.64, 21 72.73 C19.21 71.82, 17.48 70.76, 15.85 69.58 C14.23 68.4, 12.68 67.08, 11.27 65.66 C9.85 64.24, 8.52 62.69, 7.35 61.07 C6.17 59.45, 5.1 57.71, 4.19 55.92 C3.28 54.14, 2.5 52.25, 1.88 50.35 C1.26 48.44, 0.79 46.46, 0.47 44.48 C0.16 42.5, 0 40.47, 0 38.46 C0 36.46, 0.16 34.43, 0.47 32.44 C0.79 30.46, 1.26 28.48, 1.88 26.58 C2.5 24.67, 3.28 22.79, 4.19 21 C5.1 19.21, 6.17 17.48, 7.35 15.85 C8.52 14.23, 9.85 12.68, 11.27 11.27 C12.68 9.85, 14.23 8.52, 15.85 7.35 C17.48 6.17, 19.21 5.1, 21 4.19 C22.79 3.28, 24.67 2.5, 26.58 1.88 C28.48 1.26, 30.46 0.79, 32.44 0.47 C34.43 0.16, 36.46 0, 38.46 0 C40.47 0, 42.5 0.16, 44.48 0.47 C46.46 0.79, 48.44 1.26, 50.35 1.88 C52.25 2.5, 54.14 3.28, 55.92 4.19 C57.71 5.1, 59.45 6.17, 61.07 7.35 C62.69 8.52, 64.24 9.85, 65.66 11.27 C67.08 12.68, 68.4 14.23, 69.58 15.85 C70.76 17.48, 71.82 19.21, 72.73 21 C73.64 22.79, 74.42 24.67, 75.04 26.58 C75.66 28.48, 76.14 30.46, 76.45 32.44 C76.76 34.43, 76.84 37.46, 76.92 38.46 C77 39.46, 77 37.46, 76.92 38.46" stroke="#1e1e1e" stroke-width="4" fill="none"></path></g><g stroke-linecap="round"><g transform="translate(442.76586841998187 86.94207316168001) rotate(0.7083868083482888 0 50.36598804406543)"><path d="M0 0 C0 16.79, 0 83.94, 0 100.73 M0 0 C0 16.79, 0 83.94, 0 100.73" stroke="#1e1e1e" stroke-width="4" fill="none"></path></g></g><mask></mask><g stroke-linecap="round"><g transform="translate(444.3841082863587 131.59809885434646) rotate(0.7083868083482888 13.010624944296978 -31.51580994511883)"><path d="M0 0 C4.34 -10.51, 21.68 -52.53, 26.02 -63.03 M0 0 C4.34 -10.51, 21.68 -52.53, 26.02 -63.03" stroke="#1e1e1e" stroke-width="4" fill="none"></path></g></g><mask></mask><g stroke-linecap="round"><g transform="translate(441.8020438957683 132.11499579088843) rotate(0.7083868083482888 -30.73917560620248 -17.747271310908136)"><path d="M0 0 C-10.25 -5.92, -51.23 -29.58, -61.48 -35.49 M0 0 C-10.25 -5.92, -51.23 -29.58, -61.48 -35.49" stroke="#1e1e1e" stroke-width="4" fill="none"></path></g></g><mask></mask><g stroke-linecap="round"><g transform="translate(440.40814621654135 179.34344387209313) rotate(0.7083868083482888 -18.508227197781252 32.05718986458528)"><path d="M0 0 C-6.17 10.69, -30.85 53.43, -37.02 64.11 M0 0 C-6.17 10.69, -30.85 53.43, -37.02 64.11" stroke="#1e1e1e" stroke-width="4" fill="none"></path></g></g><mask></mask><g stroke-linecap="round"><g transform="translate(597.6577653001154 267.7691558502223) rotate(35.46975030774753 78.79155027702336 -82.53177851311834)"><path d="M0 0 C34.49 -34.78, 69.93 -73.41, 157.58 -165.06 M0 0 C51.01 -55.47, 102.34 -108.68, 157.58 -165.06" stroke="#1e1e1e" stroke-width="4" fill="none"></path></g><g transform="translate(597.6577653001154 267.7691558502223) rotate(35.46975030774753 78.79155027702336 -82.53177851311834)"><path d="M147.31 -142.27 C149.32 -145.62, 152.23 -153.1, 157.58 -165.06 M147.31 -142.27 C150.33 -150.56, 153.8 -157.44, 157.58 -165.06" stroke="#1e1e1e" stroke-width="4" fill="none"></path></g><g transform="translate(597.6577653001154 267.7691558502223) rotate(35.46975030774753 78.79155027702336 -82.53177851311834)"><path d="M135.06 -154.21 C139.8 -154.88, 145.43 -159.72, 157.58 -165.06 M135.06 -154.21 C142.06 -158.72, 149.51 -161.72, 157.58 -165.06" stroke="#1e1e1e" stroke-width="4" fill="none"></path></g></g><mask></mask><g stroke-linecap="round"><g transform="translate(602.0213486493212 233.43514595286365) rotate(35.46975030774753 72.75700940360548 -133.04851714002052)"><path d="M0 0 C55.8 -101.75, 112.48 -204.25, 145.51 -266.1 M0 0 C32.36 -57.86, 65.27 -117.67, 145.51 -266.1" stroke="#1e1e1e" stroke-width="4" fill="none"></path></g><g transform="translate(602.0213486493212 233.43514595286365) rotate(35.46975030774753 72.75700940360548 -133.04851714002052)"><path d="M141.84 -241.37 C143.7 -250.93, 146.29 -260.99, 145.51 -266.1 M141.84 -241.37 C142.53 -246.08, 144.48 -253.08, 145.51 -266.1" stroke="#1e1e1e" stroke-width="4" fill="none"></path></g><g transform="translate(602.0213486493212 233.43514595286365) rotate(35.46975030774753 72.75700940360548 -133.04851714002052)"><path d="M126.8 -249.52 C134.45 -255.9, 142.81 -262.83, 145.51 -266.1 M126.8 -249.52 C130.79 -252.39, 136.06 -257.6, 145.51 -266.1" stroke="#1e1e1e" stroke-width="4" fill="none"></path></g></g><mask></mask><g stroke-linecap="round"><g transform="translate(584.8956418563544 327.4748011369281) rotate(35.46975030774753 134.29841583985308 -77.53722653687937)"><path d="M0 0 C71.23 -40.97, 139.18 -81.38, 268.6 -155.07 M0 0 C74.32 -44.4, 146.63 -86.61, 268.6 -155.07" stroke="#1e1e1e" stroke-width="4" fill="none"></path></g><g transform="translate(584.8956418563544 327.4748011369281) rotate(35.46975030774753 134.29841583985308 -77.53722653687937)"><path d="M252.36 -136.07 C258.24 -141.69, 259.22 -146.41, 268.6 -155.07 M252.36 -136.07 C257.8 -142.2, 260.65 -147.12, 268.6 -155.07" stroke="#1e1e1e" stroke-width="4" fill="none"></path></g><g transform="translate(584.8956418563544 327.4748011369281) rotate(35.46975030774753 134.29841583985308 -77.53722653687937)"><path d="M243.94 -150.95 C252.07 -152.68, 255.25 -153.5, 268.6 -155.07 M243.94 -150.95 C251.66 -153.08, 256.81 -153.93, 268.6 -155.07" stroke="#1e1e1e" stroke-width="4" fill="none"></path></g></g><mask></mask><g stroke-linecap="round"><g transform="translate(551.4164925106943 285.1781520927224) rotate(16.3281458358934 50.79212920137411 5.848501582722136)"><path d="M0 0 C28.53 3.39, 59.6 6.9, 101.58 11.7 M0 0 C37.45 4.66, 75.47 9.69, 101.58 11.7" stroke="#1e1e1e" stroke-width="4" fill="none"></path></g><g transform="translate(551.4164925106943 285.1781520927224) rotate(16.3281458358934 50.79212920137411 5.848501582722136)"><path d="M77.38 17.96 C82.89 15.79, 91.1 14, 101.58 11.7 M77.38 17.96 C85.75 15.28, 94.85 13.59, 101.58 11.7" stroke="#1e1e1e" stroke-width="4" fill="none"></path></g><g transform="translate(551.4164925106943 285.1781520927224) rotate(16.3281458358934 50.79212920137411 5.848501582722136)"><path d="M79.02 0.94 C84.19 3.79, 91.91 7.03, 101.58 11.7 M79.02 0.94 C86.94 4.6, 95.43 9.28, 101.58 11.7" stroke="#1e1e1e" stroke-width="4" fill="none"></path></g></g><mask></mask><g stroke-linecap="round"><g transform="translate(441.8490439614361 179.21341170971675) rotate(0.7083868083482888 17.34345749533236 32.35274327880792)"><path d="M0 0 C5.78 10.78, 28.91 53.92, 34.69 64.71 M0 0 C5.78 10.78, 28.91 53.92, 34.69 64.71" stroke="#1e1e1e" stroke-width="4" fill="none"></path></g></g><mask></mask><g stroke-linecap="round"><g transform="translate(546.1573298200356 149.92085675657302) rotate(339.2298543013983 100.68355193209027 -2.3343149851354354)"><path d="M0 0 C59.76 0.38, 120.94 -2.6, 201.37 -4.67 M0 0 C73.83 -0.16, 145.66 -1.84, 201.37 -4.67" stroke="#1e1e1e" stroke-width="4" fill="none"></path></g><g transform="translate(546.1573298200356 149.92085675657302) rotate(339.2298543013983 100.68355193209027 -2.3343149851354354)"><path d="M178.25 4.84 C184.23 2.51, 191.75 -2.12, 201.37 -4.67 M178.25 4.84 C187.52 1.76, 194.6 -1.68, 201.37 -4.67" stroke="#1e1e1e" stroke-width="4" fill="none"></path></g><g transform="translate(546.1573298200356 149.92085675657302) rotate(339.2298543013983 100.68355193209027 -2.3343149851354354)"><path d="M177.54 -12.25 C183.62 -9.42, 191.35 -8.9, 201.37 -4.67 M177.54 -12.25 C187.17 -9.13, 194.51 -6.37, 201.37 -4.67" stroke="#1e1e1e" stroke-width="4" fill="none"></path></g></g><mask></mask><g stroke-linecap="round"><g transform="translate(497.26872799343255 121.8242542691408) rotate(339.2298543013983 68.68266363215253 -16.177883138814444)"><path d="M0 0 C29.64 -8.71, 61.34 -13.24, 137.37 -32.36 M0 0 C30.22 -7.34, 60.76 -13.89, 137.37 -32.36" stroke="#1e1e1e" stroke-width="4" fill="none"></path></g><g transform="translate(497.26872799343255 121.8242542691408) rotate(339.2298543013983 68.68266363215253 -16.177883138814444)"><path d="M116.49 -18.6 C120.62 -23.05, 126.92 -23.52, 137.37 -32.36 M116.49 -18.6 C120.7 -21.53, 125.06 -23.9, 137.37 -32.36" stroke="#1e1e1e" stroke-width="4" fill="none"></path></g><g transform="translate(497.26872799343255 121.8242542691408) rotate(339.2298543013983 68.68266363215253 -16.177883138814444)"><path d="M112.53 -35.23 C117.44 -36.06, 124.6 -32.91, 137.37 -32.36 M112.53 -35.23 C117.79 -34.43, 123.03 -33.07, 137.37 -32.36" stroke="#1e1e1e" stroke-width="4" fill="none"></path></g></g><mask></mask><g stroke-linecap="round"><g transform="translate(572.6314864787855 215.45193574565548) rotate(339.2298543013983 75.88325216697558 72.44432612521436)"><path d="M0 0 C48.93 47.9, 94.64 94.54, 151.77 144.89 M0 0 C47.42 46.83, 95.89 92.01, 151.77 144.89" stroke="#1e1e1e" stroke-width="4" fill="none"></path></g><g transform="translate(572.6314864787855 215.45193574565548) rotate(339.2298543013983 75.88325216697558 72.44432612521436)"><path d="M128.82 134.97 C137.32 139.4, 141.85 143.32, 151.77 144.89 M128.82 134.97 C135.42 139.02, 142.74 140.93, 151.77 144.89" stroke="#1e1e1e" stroke-width="4" fill="none"></path></g><g transform="translate(572.6314864787855 215.45193574565548) rotate(339.2298543013983 75.88325216697558 72.44432612521436)"><path d="M140.56 122.54 C145.31 130.83, 146.11 138.69, 151.77 144.89 M140.56 122.54 C143.37 130.58, 146.94 136.47, 151.77 144.89" stroke="#1e1e1e" stroke-width="4" fill="none"></path></g></g><mask></mask><g stroke-linecap="round"><g transform="translate(574.8348940708825 176.73348019315284) rotate(339.2298543013983 134.00163442096823 35.905629727548984)"><path d="M0 0 C72.5 19.35, 141.53 40.88, 268 71.81 M0 0 C85.27 24.14, 171.01 46.58, 268 71.81" stroke="#1e1e1e" stroke-width="4" fill="none"></path></g><g transform="translate(574.8348940708825 176.73348019315284) rotate(339.2298543013983 134.00163442096823 35.905629727548984)"><path d="M243.11 74.15 C251.54 72.3, 255.63 74.94, 268 71.81 M243.11 74.15 C250.71 73.52, 259.46 72.31, 268 71.81" stroke="#1e1e1e" stroke-width="4" fill="none"></path></g><g transform="translate(574.8348940708825 176.73348019315284) rotate(339.2298543013983 134.00163442096823 35.905629727548984)"><path d="M247.43 57.6 C254.75 60.1, 257.7 67.12, 268 71.81 M247.43 57.6 C253.78 62.19, 261.16 66.25, 268 71.81" stroke="#1e1e1e" stroke-width="4" fill="none"></path></g></g><mask></mask><g stroke-linecap="round" transform="translate(324.35299858315057 116.56541930622262) rotate(359.18639756734336 116.26968912205984 114.62820449999991)"><path d="M91.21 3.51 C103.2 -0.88, 118.72 -0.4, 131.55 1.27 C144.37 2.95, 156.54 7.69, 168.17 13.55 C179.8 19.4, 192.2 27.13, 201.34 36.38 C210.48 45.63, 217.9 56.84, 223.01 69.05 C228.13 81.27, 231.34 96.37, 232.05 109.67 C232.75 122.98, 231.21 136.55, 227.26 148.91 C223.31 161.26, 216.14 173.35, 208.34 183.79 C200.54 194.23, 191.39 204.62, 180.49 211.56 C169.59 218.5, 156.15 222.66, 142.94 225.44 C129.73 228.21, 114.48 229.83, 101.24 228.23 C88 226.63, 75.28 221.78, 63.5 215.83 C51.71 209.89, 39.43 201.83, 30.52 192.53 C21.6 183.23, 14.95 172.05, 10.01 160.03 C5.06 148.01, 1.59 133.6, 0.84 120.39 C0.08 107.19, 1.85 93.16, 5.49 80.8 C9.13 68.43, 14.91 56.66, 22.69 46.21 C30.47 35.75, 40.37 25.39, 52.17 18.07 C63.97 10.74, 85.85 4.48, 93.5 2.24 C101.15 0.01, 97.46 2.86, 98.07 4.65" stroke="#1e1e1e" stroke-width="4.5" fill="none" stroke-dasharray="8 12"></path></g><g stroke-linecap="round"><g transform="translate(285.9046390771532 262.1559563222525) rotate(324.5302496922525 -78.79155027702336 -82.53177851311834)"><path d="M0 0 C-41.09 -42.15, -81.14 -84.55, -157.58 -165.06 M0 0 C-63.2 -65.58, -126.33 -130.73, -157.58 -165.06" stroke="#1e1e1e" stroke-width="4" fill="none"></path></g><g transform="translate(285.9046390771532 262.1559563222525) rotate(324.5302496922525 -78.79155027702336 -82.53177851311834)"><path d="M-135.3 -153.73 C-142.55 -156.01, -147.8 -158.96, -157.58 -165.06 M-135.3 -153.73 C-143.55 -158.08, -153.18 -162.27, -157.58 -165.06" stroke="#1e1e1e" stroke-width="4" fill="none"></path></g><g transform="translate(285.9046390771532 262.1559563222525) rotate(324.5302496922525 -78.79155027702336 -82.53177851311834)"><path d="M-147.79 -142.06 C-151.78 -147.3, -153.82 -153.24, -157.58 -165.06 M-147.79 -142.06 C-151.21 -150.99, -155.89 -159.81, -157.58 -165.06" stroke="#1e1e1e" stroke-width="4" fill="none"></path></g></g><mask></mask><g stroke-linecap="round"><g transform="translate(281.5410557279479 227.82194642489384) rotate(324.5302496922525 -72.75700940360548 -133.04851714002052)"><path d="M0 0 C-38.84 -71.5, -76.18 -142.93, -145.51 -266.1 M0 0 C-41.29 -72.35, -81.39 -145.84, -145.51 -266.1" stroke="#1e1e1e" stroke-width="4" fill="none"></path></g><g transform="translate(281.5410557279479 227.82194642489384) rotate(324.5302496922525 -72.75700940360548 -133.04851714002052)"><path d="M-126.88 -249.43 C-132.93 -253.24, -134.95 -256.52, -145.51 -266.1 M-126.88 -249.43 C-132.22 -253.46, -137.62 -258.8, -145.51 -266.1" stroke="#1e1e1e" stroke-width="4" fill="none"></path></g><g transform="translate(281.5410557279479 227.82194642489384) rotate(324.5302496922525 -72.75700940360548 -133.04851714002052)"><path d="M-141.95 -241.35 C-143.84 -247.41, -141.77 -252.88, -145.51 -266.1 M-141.95 -241.35 C-143.21 -247.63, -144.49 -255.18, -145.51 -266.1" stroke="#1e1e1e" stroke-width="4" fill="none"></path></g></g><mask></mask><g stroke-linecap="round"><g transform="translate(298.6667625209143 321.86160160895827) rotate(324.5302496922525 -134.29841583985308 -77.53722653687937)"><path d="M0 0 C-87.89 -49.9, -179.53 -102.18, -268.6 -155.07 M0 0 C-86.29 -48.95, -171.94 -99.05, -268.6 -155.07" stroke="#1e1e1e" stroke-width="4" fill="none"></path></g><g transform="translate(298.6667625209143 321.86160160895827) rotate(324.5302496922525 -134.29841583985308 -77.53722653687937)"><path d="M-243.99 -150.68 C-250.27 -150.16, -260.95 -152.17, -268.6 -155.07 M-243.99 -150.68 C-252.28 -152.24, -259.52 -154.17, -268.6 -155.07" stroke="#1e1e1e" stroke-width="4" fill="none"></path></g><g transform="translate(298.6667625209143 321.86160160895827) rotate(324.5302496922525 -134.29841583985308 -77.53722653687937)"><path d="M-252.57 -135.89 C-255.9 -140.34, -263.71 -147.31, -268.6 -155.07 M-252.57 -135.89 C-258.1 -142.23, -262.58 -148.91, -268.6 -155.07" stroke="#1e1e1e" stroke-width="4" fill="none"></path></g></g><mask></mask><g stroke-linecap="round"><g transform="translate(332.1459118665748 279.56495256475256) rotate(343.6718541641066 -50.79212920137411 5.848501582722136)"><path d="M0 0 C-34.22 6.23, -67.1 8.52, -101.58 11.7 M0 0 C-35.37 3.02, -70.72 7.61, -101.58 11.7" stroke="#1e1e1e" stroke-width="4" fill="none"></path></g><g transform="translate(332.1459118665748 279.56495256475256) rotate(343.6718541641066 -50.79212920137411 5.848501582722136)"><path d="M-79.39 0.19 C-87.19 5.6, -93.64 7.83, -101.58 11.7 M-79.39 0.19 C-86.96 3.36, -94.51 7.88, -101.58 11.7" stroke="#1e1e1e" stroke-width="4" fill="none"></path></g><g transform="translate(332.1459118665748 279.56495256475256) rotate(343.6718541641066 -50.79212920137411 5.848501582722136)"><path d="M-77.18 17.14 C-85.88 16.93, -93.07 13.52, -101.58 11.7 M-77.18 17.14 C-85.46 14.37, -93.78 12.96, -101.58 11.7" stroke="#1e1e1e" stroke-width="4" fill="none"></path></g></g><mask></mask><g stroke-linecap="round"><g transform="translate(337.40507455723264 144.3076572286032) rotate(20.77014569860168 -100.68355193209027 -2.3343149851354354)"><path d="M0 0 C-79.27 -0.82, -158.39 -3.2, -201.37 -4.67 M0 0 C-54.53 -2.99, -110.09 -3.37, -201.37 -4.67" stroke="#1e1e1e" stroke-width="4" fill="none"></path></g><g transform="translate(337.40507455723264 144.3076572286032) rotate(20.77014569860168 -100.68355193209027 -2.3343149851354354)"><path d="M-177.76 -12.89 C-186.71 -9.71, -195.45 -7.05, -201.37 -4.67 M-177.76 -12.89 C-183.71 -11.14, -190.84 -7.9, -201.37 -4.67" stroke="#1e1e1e" stroke-width="4" fill="none"></path></g><g transform="translate(337.40507455723264 144.3076572286032) rotate(20.77014569860168 -100.68355193209027 -2.3343149851354354)"><path d="M-178 4.21 C-186.8 0.62, -195.46 -3.48, -201.37 -4.67 M-178 4.21 C-183.93 1.29, -190.99 -0.13, -201.37 -4.67" stroke="#1e1e1e" stroke-width="4" fill="none"></path></g></g><mask></mask><g stroke-linecap="round"><g transform="translate(386.29367638383656 116.21105474117094) rotate(20.77014569860168 -68.68266363215253 -16.177883138814444)"><path d="M0 0 C-49.67 -12.9, -101.81 -23.51, -137.37 -32.36 M0 0 C-30.61 -6.85, -61.25 -15.02, -137.37 -32.36" stroke="#1e1e1e" stroke-width="4" fill="none"></path></g><g transform="translate(386.29367638383656 116.21105474117094) rotate(20.77014569860168 -68.68266363215253 -16.177883138814444)"><path d="M-112.55 -35.37 C-120.68 -35.11, -131.37 -32.69, -137.37 -32.36 M-112.55 -35.37 C-118.21 -34.09, -124.08 -34.47, -137.37 -32.36" stroke="#1e1e1e" stroke-width="4" fill="none"></path></g><g transform="translate(386.29367638383656 116.21105474117094) rotate(20.77014569860168 -68.68266363215253 -16.177883138814444)"><path d="M-116.42 -18.71 C-123.16 -24.59, -132.42 -28.3, -137.37 -32.36 M-116.42 -18.71 C-121.31 -21.09, -126.33 -25.14, -137.37 -32.36" stroke="#1e1e1e" stroke-width="4" fill="none"></path></g></g><mask></mask><g stroke-linecap="round"><g transform="translate(310.9309178984836 209.8387362176856) rotate(20.77014569860168 -75.88325216697558 72.44432612521436)"><path d="M0 0 C-43.6 41.65, -88.28 83.82, -151.77 144.89 M0 0 C-41.72 39.66, -81.31 78.31, -151.77 144.89" stroke="#1e1e1e" stroke-width="4" fill="none"></path></g><g transform="translate(310.9309178984836 209.8387362176856) rotate(20.77014569860168 -75.88325216697558 72.44432612521436)"><path d="M-140.62 122.51 C-144.27 129.41, -148.53 136.3, -151.77 144.89 M-140.62 122.51 C-144.3 128.26, -145.82 133.86, -151.77 144.89" stroke="#1e1e1e" stroke-width="4" fill="none"></path></g><g transform="translate(310.9309178984836 209.8387362176856) rotate(20.77014569860168 -75.88325216697558 72.44432612521436)"><path d="M-128.84 134.91 C-135.95 138.18, -143.61 141.5, -151.77 144.89 M-128.84 134.91 C-135.67 137.4, -140.36 139.65, -151.77 144.89" stroke="#1e1e1e" stroke-width="4" fill="none"></path></g></g><mask></mask><g stroke-linecap="round"><g transform="translate(308.7275103063862 171.12028066518297) rotate(20.77014569860168 -134.00163442096823 35.905629727548984)"><path d="M0 0 C-70.73 19.81, -139.32 37.33, -268 71.81 M0 0 C-98.68 25.18, -197.58 52.71, -268 71.81" stroke="#1e1e1e" stroke-width="4" fill="none"></path></g><g transform="translate(308.7275103063862 171.12028066518297) rotate(20.77014569860168 -134.00163442096823 35.905629727548984)"><path d="M-247.59 57.38 C-254.51 62.1, -258.8 64.46, -268 71.81 M-247.59 57.38 C-254.36 61.85, -261.77 68.47, -268 71.81" stroke="#1e1e1e" stroke-width="4" fill="none"></path></g><g transform="translate(308.7275103063862 171.12028066518297) rotate(20.77014569860168 -134.00163442096823 35.905629727548984)"><path d="M-243.09 73.88 C-251.13 74.34, -256.59 72.43, -268 71.81 M-243.09 73.88 C-251.42 72.23, -260.49 72.76, -268 71.81" stroke="#1e1e1e" stroke-width="4" fill="none"></path></g></g><mask></mask></svg>